# xmcd
#
# Track frame offsets:
#	150
#	18714
#	55716
#	72876
#	110873
#	137722
#	151191
#	164617
#	184355
#	195472
#	211223
#	229283
#	242278
#	253129
#
# Disc length: 3483 seconds
# Revision: 0
# Processed by: cddbd v1.5.2PL0 Copyright (c) Steve Scherf et al.
# Submitted via: dBpowerAMP V12.0
#
DISCID=c80d990e
DTITLE=Haimhauser Dorfmusik - Herbstkonzert 2009
DYEAR=2009
DGENRE=Country
TTITLE0=Tuba Concerto Espagnol
TTITLE1=Ernst im Allgäu
TTITLE2=Kaiser-Walzer
TTITLE3=A Tribute to Harry James
TTITLE4=Happy Trombones
TTITLE5=Nobody konows the Trouble I`ve seen
TTITLE6=The Power of Love
TTITLE7=Mir san de Kaiserjager
TTITLE8=Dem Land Tirol
TTITLE9=San Lorenzo Marsch
TTITLE10=Promenade (Holzwürmer)
TTITLE11=Tiger Rock (Holzwürmer)
TTITLE12=Italian Carousel (Holzwürmer)
TTITLE13=DATA
EXTD=
EXTT0=
EXTT1=
EXTT2=
EXTT3=
EXTT4=
EXTT5=
EXTT6=
EXTT7=
EXTT8=
EXTT9=
EXTT10=
EXTT11=
EXTT12=
EXTT13=
PLAYORDER=
